<?xml version="1.0" encoding="UTF-8" standalone="no"?>
<!DOCTYPE svg PUBLIC "-//W3C//DTD SVG 1.1//EN" "http://www.w3.org/Graphics/SVG/1.1/DTD/svg11.dtd">
<svg width="100%" height="100%" viewBox="0 0 270 327" version="1.1" xmlns="http://www.w3.org/2000/svg" xmlns:xlink="http://www.w3.org/1999/xlink" xml:space="preserve" xmlns:serif="http://www.serif.com/" style="fill-rule:evenodd;clip-rule:evenodd;stroke-linejoin:round;stroke-miterlimit:2;">
    <g transform="matrix(0.380337,0,0,0.380337,-13.4765,24.2983)">
        <g id="Layer-1" serif:id="Layer 1">
            <path id="path154" d="M407.783,-63.886C402.274,-63.896 396.528,-63.665 390.536,-63.187C239.096,-50.991 279.259,108.998 277.011,162.573C274.245,201.753 266.302,232.628 239.356,270.931C207.698,308.577 163.129,369.508 142.015,432.935C132.05,462.869 127.308,493.381 131.687,522.258C130.315,523.487 129.009,524.774 127.768,526.099C118.473,536.022 111.605,548.045 103.953,556.14C96.804,563.272 86.618,565.984 75.424,570C64.227,574.018 51.932,579.941 44.47,594.262C44.47,594.262 44.47,594.267 44.465,594.269C44.452,594.292 44.439,594.315 44.426,594.339C37.671,606.957 39.679,621.487 41.742,634.95C43.806,648.412 45.894,661.133 43.122,669.764C34.26,693.987 33.128,710.742 39.367,722.896C45.619,735.075 58.474,740.451 73.002,743.485C102.06,749.554 141.411,748.046 172.424,764.484L175.09,759.454L172.452,764.499C205.653,781.857 239.313,788.023 266.167,781.889C285.637,777.442 301.442,765.849 309.559,748.009C330.563,747.906 353.612,739.01 390.533,736.977C415.581,734.96 446.869,745.872 482.859,743.874C483.799,747.778 485.161,751.534 487.025,755.103C487.044,755.139 487.062,755.176 487.081,755.212C501.033,783.11 526.955,795.871 554.581,793.69C582.243,791.507 611.654,775.196 635.428,746.904L631.069,743.241L635.461,746.864C658.121,719.388 695.733,707.994 720.673,692.952C733.142,685.431 743.261,676.013 744.043,662.335C744.824,648.663 736.798,633.342 718.341,612.854L718.336,612.849C718.329,612.84 718.321,612.832 718.314,612.824C712.25,605.971 709.357,593.269 706.248,579.743C703.141,566.226 699.673,551.644 688.575,542.194C688.553,542.175 688.531,542.157 688.509,542.138C684.092,538.289 679.502,535.677 674.88,533.922C690.309,488.162 684.255,442.596 668.68,401.421C649.565,350.887 616.193,306.855 590.707,276.732C562.179,240.749 534.275,206.585 534.825,156.126C535.675,79.115 543.296,-63.7 407.78,-63.885L407.783,-63.886ZM426.129,54.757C433.819,54.757 440.386,57.011 447.133,61.908C453.986,66.882 458.924,73.109 462.903,81.805C466.809,90.28 468.688,98.571 468.872,108.409C468.872,108.667 468.872,108.888 468.946,109.146C469.02,119.242 467.288,127.827 463.456,136.597C461.269,141.6 458.758,145.8 455.753,149.436C454.732,148.947 453.672,148.476 452.573,148.024C444.955,144.761 439.111,142.684 434.24,140.994C436.005,138.872 437.476,136.354 438.768,133.208C440.721,128.455 441.679,123.812 441.864,118.285C441.864,118.064 441.937,117.879 441.937,117.621C442.048,112.316 441.348,107.783 439.8,103.141C438.179,98.277 436.116,94.777 433.131,91.866C430.146,88.955 427.162,87.628 423.588,87.518C423.42,87.507 423.253,87.507 423.088,87.507C419.726,87.518 416.807,88.67 413.786,91.199C410.618,93.852 408.259,97.242 406.306,101.958C404.354,106.675 403.396,111.354 403.211,116.918C403.174,117.139 403.174,117.324 403.174,117.545C403.111,120.603 403.305,123.405 403.777,126.125C396.897,122.697 390.415,120.361 384.331,118.912C383.984,116.282 383.783,113.567 383.719,110.728L383.719,109.954C383.609,99.895 385.267,91.273 389.136,82.503C393.005,73.734 397.795,67.433 404.538,62.311C411.281,57.189 417.913,54.831 425.761,54.758L426.129,54.758L426.129,54.757ZM320.878,63.091C325.98,63.103 330.544,64.807 335.266,68.577C340.387,72.667 344.256,77.899 347.499,85.269C350.741,92.638 352.473,100.008 352.952,108.703L352.952,108.777C353.184,112.429 353.156,115.867 352.868,119.196C351.859,119.483 350.87,119.793 349.902,120.127C344.402,122.02 339.554,124.6 335.329,127.39C335.742,124.472 335.804,121.511 335.487,118.209C335.45,118.025 335.45,117.878 335.45,117.694C335.008,113.309 334.086,109.624 332.539,105.903C330.881,102.034 329.038,99.307 326.606,97.207C324.403,95.303 322.32,94.429 320.029,94.447C319.792,94.447 319.553,94.46 319.311,94.48C316.732,94.701 314.594,95.954 312.568,98.422C310.541,100.891 309.215,103.949 308.257,108.002C307.299,112.056 307.041,116.035 307.446,120.604C307.446,120.788 307.483,120.936 307.483,121.12C307.925,125.542 308.81,129.226 310.394,132.948C312.015,136.78 313.895,139.507 316.326,141.607C316.734,141.959 317.137,142.274 317.538,142.557C315.008,144.504 313.8,145.401 311.728,146.924C310.398,147.9 308.815,149.061 306.974,150.418C302.961,146.658 299.83,141.933 297.092,135.711C293.85,128.342 292.118,120.973 291.602,112.277L291.602,112.203C291.123,103.508 291.971,96.028 294.366,88.29C296.761,80.552 299.966,74.951 304.609,70.345C309.252,65.74 313.931,63.418 319.569,63.124C320.009,63.099 320.446,63.088 320.878,63.09L320.878,63.091ZM368.746,123.419C380.602,123.373 394.87,127.26 412.143,138.366C422.753,145.266 431.009,145.843 450.019,153.985L450.042,153.995L450.066,154.004C459.212,157.757 464.581,162.648 467.204,167.799C469.827,172.951 469.891,178.536 467.696,184.413C463.305,196.165 449.29,208.534 429.622,214.676L429.604,214.684L429.586,214.692C419.997,217.807 411.635,224.688 401.776,230.325C391.918,235.962 380.763,240.509 365.595,239.631C365.595,239.631 365.595,239.631 365.595,239.631C352.682,238.878 344.963,234.495 337.984,228.886C331.004,223.276 324.922,216.229 316.016,211L315.994,210.986L315.97,210.972C301.625,202.864 293.793,193.486 291.335,185.356C288.877,177.226 291.184,170.286 298.301,164.952C306.303,158.955 311.862,154.875 315.565,152.158C319.243,149.459 320.774,148.447 321.945,147.322C321.951,147.313 321.958,147.309 321.964,147.304L321.969,147.295C327.981,141.603 337.566,131.234 352.014,126.261C356.986,124.549 362.535,123.445 368.746,123.42L368.746,123.419ZM451.656,172.454C446.539,172.759 441.18,175.394 434.941,178.877C428.702,182.36 421.685,186.816 414.081,191.205C398.873,199.981 381.367,208.374 363.969,208.374C346.545,208.374 332.623,200.327 322.182,192.052C316.961,187.915 312.652,183.748 309.209,180.524C307.488,178.912 305.995,177.538 304.602,176.465C303.21,175.392 302.076,174.328 299.745,174.328L299.634,179.225C299.467,180.863 299.295,180.813 299.363,180.858C299.472,180.929 300.013,181.115 300.644,181.601C301.668,182.39 303.089,183.676 304.776,185.256C308.15,188.416 312.634,192.76 318.154,197.135C329.194,205.883 344.547,214.859 363.969,214.859C383.419,214.859 401.82,205.769 417.324,196.821C425.076,192.348 432.116,187.882 438.103,184.54C444.09,181.198 449.126,179.102 452.043,178.928L451.656,172.454ZM468.944,195.729C481.861,246.65 511.906,320.199 531.217,356.093C541.481,375.136 561.902,415.597 570.725,464.344C576.315,464.173 582.471,464.985 589.063,466.671C612.131,406.869 569.502,342.454 550.009,324.515C542.139,316.879 541.761,313.457 545.662,313.619C566.811,332.322 594.576,369.939 604.677,412.399C609.283,431.761 610.265,452.114 605.323,472.202C607.741,473.206 610.197,474.298 612.685,475.477C649.713,493.507 663.408,509.186 656.823,530.586C654.655,530.51 652.521,530.518 650.441,530.568C650.247,530.573 650.054,530.578 649.86,530.583C655.222,513.621 643.344,501.11 611.691,486.788C578.86,472.344 552.699,473.781 548.277,503.075C547.994,504.609 547.767,506.173 547.593,507.759C545.14,508.61 542.674,509.698 540.202,511.051C524.786,519.486 516.372,534.792 511.692,553.564C507.016,572.321 505.675,594.997 504.385,620.488L504.385,620.501C503.596,633.319 498.326,650.655 492.982,669.017C439.2,707.38 364.557,724.001 301.181,680.75C296.886,673.956 291.96,667.224 286.888,660.585C283.65,656.345 280.323,652.131 277.016,647.976C283.521,647.981 289.051,646.916 293.521,644.889C299.079,642.369 302.984,638.321 304.916,633.125C308.779,622.732 304.899,608.07 292.529,591.328C280.161,574.586 259.213,555.692 228.431,536.814C228.431,536.814 228.426,536.814 228.426,536.809C205.812,522.74 193.165,505.496 187.245,486.772C181.325,468.048 182.155,447.8 186.718,427.809C195.475,389.438 217.977,352.119 232.335,328.7C236.2,325.855 233.716,333.979 217.8,363.535C203.536,390.557 176.869,452.918 213.381,501.597C214.357,466.955 222.63,431.624 236.518,398.576C256.748,352.719 299.062,273.198 302.422,209.819C304.155,211.077 310.109,215.095 312.762,216.604C312.767,216.612 312.774,216.612 312.779,216.613C320.542,221.184 326.372,227.866 333.923,233.934C341.488,240.014 350.94,245.266 365.219,246.098C381.886,247.063 394.589,241.9 404.997,235.949C415.388,230.007 423.69,223.431 431.555,220.864C431.567,220.856 431.579,220.856 431.591,220.852C448.21,215.655 461.424,206.457 468.944,195.728L468.944,195.729ZM574.503,487.251C581.235,487.22 589.389,489.465 598.315,493.458C622.339,504.549 629.856,514.055 623.297,528.02C617.77,538.558 594.115,555.324 577.902,550.902C561.358,546.628 553.288,522.788 555.978,504.77C557.419,492.534 564.34,487.299 574.503,487.251ZM547.321,520.178C548.68,542.211 559.581,564.683 578.86,569.547C599.958,575.105 630.376,557.003 643.219,542.238C645.78,542.136 648.283,542.01 650.715,541.952C661.98,541.68 671.429,542.323 681.084,550.766L681.117,550.795L681.151,550.823C688.57,557.109 692.097,568.987 695.155,582.294C698.214,595.601 700.66,610.093 709.832,620.418L709.846,620.433L709.858,620.447C727.492,640.016 733.16,653.242 732.678,661.685C732.195,670.127 726.083,676.394 714.796,683.202C692.231,696.812 652.25,708.646 626.714,739.579C604.539,765.967 577.501,780.46 553.688,782.34C529.875,784.219 509.33,774.336 497.218,750.025L497.19,749.97L497.161,749.916C489.647,735.621 492.777,713.063 499.107,689.269C505.437,665.475 514.532,641.043 515.75,621.185L515.75,621.124C517.037,595.681 518.462,573.461 522.736,556.317C527.009,539.173 533.739,527.562 545.663,521.038C546.219,520.734 546.77,520.447 547.318,520.176L547.321,520.178ZM160.096,521.84C161.876,521.847 163.759,521.996 165.766,522.3C179.264,524.344 191.034,533.782 202.374,549.163C213.715,564.545 224.267,585.542 235.114,608.833L235.128,608.862L235.14,608.89C243.857,627.083 262.251,647.088 277.839,667.495C293.427,687.903 305.491,708.388 303.92,724.067L303.913,724.135L303.908,724.203C301.875,750.944 286.791,765.501 263.635,770.79C240.486,776.077 209.104,770.807 177.759,754.425C177.75,754.42 177.74,754.416 177.731,754.41C143.053,736.043 101.798,737.867 75.334,732.34C62.099,729.576 53.462,725.42 49.499,717.698C45.535,709.977 45.446,696.505 53.87,673.535L53.907,673.434L53.94,673.331C58.106,660.482 55.023,646.422 53,633.226C50.978,620.029 49.989,608.026 54.495,599.66L54.516,599.621L54.536,599.582C60.306,588.461 68.768,584.486 79.271,580.718C89.774,576.95 102.228,573.99 112.062,564.134L112.113,564.082L112.164,564.029C121.256,554.438 128.085,542.416 136.077,533.883C142.821,526.683 149.57,521.912 159.742,521.841L160.097,521.841L160.096,521.84Z" style="fill:white;fill-rule:nonzero;"/>
        </g>
    </g>
</svg>
